<mxfile host="65bd71144e">
    <diagram id="l8OFEX8iwd6l9Mwlr0bT" name="Page-1">
        <mxGraphModel dx="871" dy="558" grid="1" gridSize="10" guides="1" tooltips="1" connect="1" arrows="1" fold="1" page="1" pageScale="1" pageWidth="827" pageHeight="1169" background="#ffffff" math="0" shadow="0">
            <root>
                <mxCell id="0"/>
                <mxCell id="1" parent="0"/>
                <mxCell id="2" value="ContentHash" style="shape=table;startSize=30;container=1;collapsible=0;childLayout=tableLayout;fixedRows=1;rowLines=0;fontStyle=1;strokeWidth=3;fillColor=none;fontColor=#0d0c0c;strokeColor=#0A0A0A;" parent="1" vertex="1">
                    <mxGeometry x="40" y="40" width="260" height="120" as="geometry"/>
                </mxCell>
                <mxCell id="3" value="" style="shape=tableRow;horizontal=0;startSize=0;swimlaneHead=0;swimlaneBody=0;top=0;left=0;bottom=0;right=0;collapsible=0;dropTarget=0;points=[[0,0.5],[1,0.5]];portConstraint=eastwest;strokeWidth=3;fillColor=none;fontColor=#0d0c0c;strokeColor=#0A0A0A;" parent="2" vertex="1">
                    <mxGeometry y="30" width="260" height="30" as="geometry"/>
                </mxCell>
                <mxCell id="4" value="1" style="shape=partialRectangle;html=1;whiteSpace=wrap;connectable=0;top=0;left=0;bottom=0;right=0;overflow=hidden;pointerEvents=1;strokeWidth=3;fillColor=none;fontColor=#0d0c0c;strokeColor=#0A0A0A;" parent="3" vertex="1">
                    <mxGeometry width="58" height="30" as="geometry">
                        <mxRectangle width="58" height="30" as="alternateBounds"/>
                    </mxGeometry>
                </mxCell>
                <mxCell id="5" value="" style="shape=partialRectangle;html=1;whiteSpace=wrap;connectable=0;top=0;left=0;bottom=0;right=0;align=left;spacingLeft=6;overflow=hidden;strokeWidth=3;fillColor=none;fontColor=#0d0c0c;strokeColor=#0A0A0A;" parent="3" vertex="1">
                    <mxGeometry x="58" width="202" height="30" as="geometry">
                        <mxRectangle width="202" height="30" as="alternateBounds"/>
                    </mxGeometry>
                </mxCell>
                <mxCell id="6" value="" style="shape=tableRow;horizontal=0;startSize=0;swimlaneHead=0;swimlaneBody=0;top=0;left=0;bottom=0;right=0;collapsible=0;dropTarget=0;points=[[0,0.5],[1,0.5]];portConstraint=eastwest;strokeWidth=3;fillColor=none;fontColor=#0d0c0c;strokeColor=#0A0A0A;" parent="2" vertex="1">
                    <mxGeometry y="60" width="260" height="30" as="geometry"/>
                </mxCell>
                <mxCell id="7" value="2" style="shape=partialRectangle;html=1;whiteSpace=wrap;connectable=0;top=0;left=0;bottom=0;right=0;overflow=hidden;strokeWidth=3;fillColor=none;fontColor=#0d0c0c;strokeColor=#0A0A0A;" parent="6" vertex="1">
                    <mxGeometry width="58" height="30" as="geometry">
                        <mxRectangle width="58" height="30" as="alternateBounds"/>
                    </mxGeometry>
                </mxCell>
                <mxCell id="8" value="documentHash" style="shape=partialRectangle;html=1;whiteSpace=wrap;connectable=0;top=0;left=0;bottom=0;right=0;align=left;spacingLeft=6;overflow=hidden;strokeWidth=3;fillColor=none;fontColor=#0d0c0c;strokeColor=#0A0A0A;" parent="6" vertex="1">
                    <mxGeometry x="58" width="202" height="30" as="geometry">
                        <mxRectangle width="202" height="30" as="alternateBounds"/>
                    </mxGeometry>
                </mxCell>
                <mxCell id="12" value="" style="shape=tableRow;horizontal=0;startSize=0;swimlaneHead=0;swimlaneBody=0;top=0;left=0;bottom=0;right=0;collapsible=0;dropTarget=0;points=[[0,0.5],[1,0.5]];portConstraint=eastwest;strokeWidth=3;fillColor=none;fontColor=#0d0c0c;strokeColor=#0A0A0A;" parent="2" vertex="1">
                    <mxGeometry y="90" width="260" height="30" as="geometry"/>
                </mxCell>
                <mxCell id="13" value="3" style="shape=partialRectangle;html=1;whiteSpace=wrap;connectable=0;top=0;left=0;bottom=0;right=0;overflow=hidden;strokeWidth=3;fillColor=none;fontColor=#0d0c0c;strokeColor=#0A0A0A;" parent="12" vertex="1">
                    <mxGeometry width="58" height="30" as="geometry">
                        <mxRectangle width="58" height="30" as="alternateBounds"/>
                    </mxGeometry>
                </mxCell>
                <mxCell id="14" value="referencedAttestations(most recent)" style="shape=partialRectangle;html=1;whiteSpace=wrap;connectable=0;top=0;left=0;bottom=0;right=0;align=left;spacingLeft=6;overflow=hidden;strokeWidth=3;fillColor=none;fontColor=#0d0c0c;strokeColor=#0A0A0A;" parent="12" vertex="1">
                    <mxGeometry x="58" width="202" height="30" as="geometry">
                        <mxRectangle width="202" height="30" as="alternateBounds"/>
                    </mxGeometry>
                </mxCell>
                <mxCell id="18" value="StatementSchema(private/merkletree)" style="shape=table;startSize=30;container=1;collapsible=0;childLayout=tableLayout;fixedRows=1;rowLines=0;fontStyle=1;strokeWidth=3;fillColor=none;fontColor=#0d0c0c;strokeColor=#0A0A0A;" parent="1" vertex="1">
                    <mxGeometry x="360" y="40" width="260" height="570" as="geometry"/>
                </mxCell>
                <mxCell id="19" value="" style="shape=tableRow;horizontal=0;startSize=0;swimlaneHead=0;swimlaneBody=0;top=0;left=0;bottom=0;right=0;collapsible=0;dropTarget=0;points=[[0,0.5],[1,0.5]];portConstraint=eastwest;strokeWidth=3;fillColor=none;fontColor=#0d0c0c;strokeColor=#0A0A0A;" parent="18" vertex="1">
                    <mxGeometry y="30" width="260" height="30" as="geometry"/>
                </mxCell>
                <mxCell id="20" value="0" style="shape=partialRectangle;html=1;whiteSpace=wrap;connectable=0;top=0;left=0;bottom=0;right=0;overflow=hidden;pointerEvents=1;strokeWidth=3;fillColor=none;fontColor=#0d0c0c;strokeColor=#0A0A0A;" parent="19" vertex="1">
                    <mxGeometry width="58" height="30" as="geometry">
                        <mxRectangle width="58" height="30" as="alternateBounds"/>
                    </mxGeometry>
                </mxCell>
                <mxCell id="21" value="statementContentAttestationUID" style="shape=partialRectangle;html=1;whiteSpace=wrap;connectable=0;top=0;left=0;bottom=0;right=0;align=left;spacingLeft=6;overflow=hidden;strokeWidth=3;fillColor=none;fontColor=#0d0c0c;strokeColor=#0A0A0A;" parent="19" vertex="1">
                    <mxGeometry x="58" width="202" height="30" as="geometry">
                        <mxRectangle width="202" height="30" as="alternateBounds"/>
                    </mxGeometry>
                </mxCell>
                <mxCell id="71" value="" style="shape=tableRow;horizontal=0;startSize=0;swimlaneHead=0;swimlaneBody=0;top=0;left=0;bottom=0;right=0;collapsible=0;dropTarget=0;points=[[0,0.5],[1,0.5]];portConstraint=eastwest;strokeWidth=3;fillColor=none;fontColor=#0d0c0c;strokeColor=#0A0A0A;" parent="18" vertex="1">
                    <mxGeometry y="60" width="260" height="30" as="geometry"/>
                </mxCell>
                <mxCell id="72" value="1" style="shape=partialRectangle;html=1;whiteSpace=wrap;connectable=0;top=0;left=0;bottom=0;right=0;overflow=hidden;pointerEvents=1;strokeWidth=3;fillColor=none;fontColor=#0d0c0c;strokeColor=#0A0A0A;" parent="71" vertex="1">
                    <mxGeometry width="58" height="30" as="geometry">
                        <mxRectangle width="58" height="30" as="alternateBounds"/>
                    </mxGeometry>
                </mxCell>
                <mxCell id="73" value="statementOwnerNameHash" style="shape=partialRectangle;html=1;whiteSpace=wrap;connectable=0;top=0;left=0;bottom=0;right=0;align=left;spacingLeft=6;overflow=hidden;strokeWidth=3;fillColor=none;fontColor=#0d0c0c;strokeColor=#0A0A0A;" parent="71" vertex="1">
                    <mxGeometry x="58" width="202" height="30" as="geometry">
                        <mxRectangle width="202" height="30" as="alternateBounds"/>
                    </mxGeometry>
                </mxCell>
                <mxCell id="62" value="" style="shape=tableRow;horizontal=0;startSize=0;swimlaneHead=0;swimlaneBody=0;top=0;left=0;bottom=0;right=0;collapsible=0;dropTarget=0;points=[[0,0.5],[1,0.5]];portConstraint=eastwest;strokeWidth=3;fillColor=none;fontColor=#0d0c0c;strokeColor=#0A0A0A;" parent="18" vertex="1">
                    <mxGeometry y="90" width="260" height="30" as="geometry"/>
                </mxCell>
                <mxCell id="63" value="2" style="shape=partialRectangle;html=1;whiteSpace=wrap;connectable=0;top=0;left=0;bottom=0;right=0;overflow=hidden;pointerEvents=1;strokeWidth=3;fillColor=none;fontColor=#0d0c0c;strokeColor=#0A0A0A;" parent="62" vertex="1">
                    <mxGeometry width="58" height="30" as="geometry">
                        <mxRectangle width="58" height="30" as="alternateBounds"/>
                    </mxGeometry>
                </mxCell>
                <mxCell id="64" value="institutionNameHash" style="shape=partialRectangle;html=1;whiteSpace=wrap;connectable=0;top=0;left=0;bottom=0;right=0;align=left;spacingLeft=6;overflow=hidden;strokeWidth=3;fillColor=none;fontColor=#0d0c0c;strokeColor=#0A0A0A;" parent="62" vertex="1">
                    <mxGeometry x="58" width="202" height="30" as="geometry">
                        <mxRectangle width="202" height="30" as="alternateBounds"/>
                    </mxGeometry>
                </mxCell>
                <mxCell id="65" value="" style="shape=tableRow;horizontal=0;startSize=0;swimlaneHead=0;swimlaneBody=0;top=0;left=0;bottom=0;right=0;collapsible=0;dropTarget=0;points=[[0,0.5],[1,0.5]];portConstraint=eastwest;strokeWidth=3;fillColor=none;fontColor=#0d0c0c;strokeColor=#0A0A0A;" parent="18" vertex="1">
                    <mxGeometry y="120" width="260" height="30" as="geometry"/>
                </mxCell>
                <mxCell id="66" value="3" style="shape=partialRectangle;html=1;whiteSpace=wrap;connectable=0;top=0;left=0;bottom=0;right=0;overflow=hidden;pointerEvents=1;strokeWidth=3;fillColor=none;fontColor=#0d0c0c;strokeColor=#0A0A0A;" parent="65" vertex="1">
                    <mxGeometry width="58" height="30" as="geometry">
                        <mxRectangle width="58" height="30" as="alternateBounds"/>
                    </mxGeometry>
                </mxCell>
                <mxCell id="67" value="statementId" style="shape=partialRectangle;html=1;whiteSpace=wrap;connectable=0;top=0;left=0;bottom=0;right=0;align=left;spacingLeft=6;overflow=hidden;strokeWidth=3;fillColor=none;fontColor=#0d0c0c;strokeColor=#0A0A0A;" parent="65" vertex="1">
                    <mxGeometry x="58" width="202" height="30" as="geometry">
                        <mxRectangle width="202" height="30" as="alternateBounds"/>
                    </mxGeometry>
                </mxCell>
                <mxCell id="68" value="" style="shape=tableRow;horizontal=0;startSize=0;swimlaneHead=0;swimlaneBody=0;top=0;left=0;bottom=0;right=0;collapsible=0;dropTarget=0;points=[[0,0.5],[1,0.5]];portConstraint=eastwest;strokeWidth=3;fillColor=none;fontColor=#0d0c0c;strokeColor=#0A0A0A;" parent="18" vertex="1">
                    <mxGeometry y="150" width="260" height="30" as="geometry"/>
                </mxCell>
                <mxCell id="69" value="4" style="shape=partialRectangle;html=1;whiteSpace=wrap;connectable=0;top=0;left=0;bottom=0;right=0;overflow=hidden;pointerEvents=1;strokeWidth=3;fillColor=none;fontColor=#0d0c0c;strokeColor=#0A0A0A;" parent="68" vertex="1">
                    <mxGeometry width="58" height="30" as="geometry">
                        <mxRectangle width="58" height="30" as="alternateBounds"/>
                    </mxGeometry>
                </mxCell>
                <mxCell id="70" value="taxYear" style="shape=partialRectangle;html=1;whiteSpace=wrap;connectable=0;top=0;left=0;bottom=0;right=0;align=left;spacingLeft=6;overflow=hidden;strokeWidth=3;fillColor=none;fontColor=#0d0c0c;strokeColor=#0A0A0A;" parent="68" vertex="1">
                    <mxGeometry x="58" width="202" height="30" as="geometry">
                        <mxRectangle width="202" height="30" as="alternateBounds"/>
                    </mxGeometry>
                </mxCell>
                <mxCell id="22" value="" style="shape=tableRow;horizontal=0;startSize=0;swimlaneHead=0;swimlaneBody=0;top=0;left=0;bottom=0;right=0;collapsible=0;dropTarget=0;points=[[0,0.5],[1,0.5]];portConstraint=eastwest;strokeWidth=3;fillColor=none;fontColor=#0d0c0c;strokeColor=#0A0A0A;" parent="18" vertex="1">
                    <mxGeometry y="180" width="260" height="30" as="geometry"/>
                </mxCell>
                <mxCell id="23" value="5" style="shape=partialRectangle;html=1;whiteSpace=wrap;connectable=0;top=0;left=0;bottom=0;right=0;overflow=hidden;strokeWidth=3;fillColor=none;fontColor=#0d0c0c;strokeColor=#0A0A0A;" parent="22" vertex="1">
                    <mxGeometry width="58" height="30" as="geometry">
                        <mxRectangle width="58" height="30" as="alternateBounds"/>
                    </mxGeometry>
                </mxCell>
                <mxCell id="24" value="taxValueAB" style="shape=partialRectangle;html=1;whiteSpace=wrap;connectable=0;top=0;left=0;bottom=0;right=0;align=left;spacingLeft=6;overflow=hidden;strokeWidth=3;fillColor=none;fontColor=#0d0c0c;strokeColor=#0A0A0A;" parent="22" vertex="1">
                    <mxGeometry x="58" width="202" height="30" as="geometry">
                        <mxRectangle width="202" height="30" as="alternateBounds"/>
                    </mxGeometry>
                </mxCell>
                <mxCell id="25" value="" style="shape=tableRow;horizontal=0;startSize=0;swimlaneHead=0;swimlaneBody=0;top=0;left=0;bottom=0;right=0;collapsible=0;dropTarget=0;points=[[0,0.5],[1,0.5]];portConstraint=eastwest;strokeWidth=3;fillColor=none;fontColor=#0d0c0c;strokeColor=#0A0A0A;" parent="18" vertex="1">
                    <mxGeometry y="210" width="260" height="30" as="geometry"/>
                </mxCell>
                <mxCell id="26" value="6" style="shape=partialRectangle;html=1;whiteSpace=wrap;connectable=0;top=0;left=0;bottom=0;right=0;overflow=hidden;strokeWidth=3;fillColor=none;fontColor=#0d0c0c;strokeColor=#0A0A0A;" parent="25" vertex="1">
                    <mxGeometry width="58" height="30" as="geometry">
                        <mxRectangle width="58" height="30" as="alternateBounds"/>
                    </mxGeometry>
                </mxCell>
                <mxCell id="27" value="grossRevenueWhtValue" style="shape=partialRectangle;html=1;whiteSpace=wrap;connectable=0;top=0;left=0;bottom=0;right=0;align=left;spacingLeft=6;overflow=hidden;strokeWidth=3;fillColor=none;fontColor=#0d0c0c;strokeColor=#0A0A0A;" parent="25" vertex="1">
                    <mxGeometry x="58" width="202" height="30" as="geometry">
                        <mxRectangle width="202" height="30" as="alternateBounds"/>
                    </mxGeometry>
                </mxCell>
                <mxCell id="28" value="" style="shape=tableRow;horizontal=0;startSize=0;swimlaneHead=0;swimlaneBody=0;top=0;left=0;bottom=0;right=0;collapsible=0;dropTarget=0;points=[[0,0.5],[1,0.5]];portConstraint=eastwest;strokeWidth=3;fillColor=none;fontColor=#0d0c0c;strokeColor=#0A0A0A;" parent="18" vertex="1">
                    <mxGeometry y="240" width="260" height="30" as="geometry"/>
                </mxCell>
                <mxCell id="29" value="7" style="shape=partialRectangle;html=1;whiteSpace=wrap;connectable=0;top=0;left=0;bottom=0;right=0;overflow=hidden;strokeWidth=3;fillColor=none;fontColor=#0d0c0c;strokeColor=#0A0A0A;" parent="28" vertex="1">
                    <mxGeometry width="58" height="30" as="geometry">
                        <mxRectangle width="58" height="30" as="alternateBounds"/>
                    </mxGeometry>
                </mxCell>
                <mxCell id="30" value="grossRevenueWoWhtValue" style="shape=partialRectangle;html=1;whiteSpace=wrap;connectable=0;top=0;left=0;bottom=0;right=0;align=left;spacingLeft=6;overflow=hidden;strokeWidth=3;fillColor=none;fontColor=#0d0c0c;strokeColor=#0A0A0A;" parent="28" vertex="1">
                    <mxGeometry x="58" width="202" height="30" as="geometry">
                        <mxRectangle width="202" height="30" as="alternateBounds"/>
                    </mxGeometry>
                </mxCell>
                <mxCell id="38" value="" style="shape=tableRow;horizontal=0;startSize=0;swimlaneHead=0;swimlaneBody=0;top=0;left=0;bottom=0;right=0;collapsible=0;dropTarget=0;points=[[0,0.5],[1,0.5]];portConstraint=eastwest;strokeWidth=3;fillColor=none;fontColor=#0d0c0c;strokeColor=#0A0A0A;" parent="18" vertex="1">
                    <mxGeometry y="270" width="260" height="30" as="geometry"/>
                </mxCell>
                <mxCell id="39" value="8" style="shape=partialRectangle;html=1;whiteSpace=wrap;connectable=0;top=0;left=0;bottom=0;right=0;overflow=hidden;strokeWidth=3;fillColor=none;fontColor=#0d0c0c;strokeColor=#0A0A0A;" parent="38" vertex="1">
                    <mxGeometry width="58" height="30" as="geometry">
                        <mxRectangle width="58" height="30" as="alternateBounds"/>
                    </mxGeometry>
                </mxCell>
                <mxCell id="40" value="whtClaim" style="shape=partialRectangle;html=1;whiteSpace=wrap;connectable=0;top=0;left=0;bottom=0;right=0;align=left;spacingLeft=6;overflow=hidden;strokeWidth=3;fillColor=none;fontColor=#0d0c0c;strokeColor=#0A0A0A;" parent="38" vertex="1">
                    <mxGeometry x="58" width="202" height="30" as="geometry">
                        <mxRectangle width="202" height="30" as="alternateBounds"/>
                    </mxGeometry>
                </mxCell>
                <mxCell id="41" value="" style="shape=tableRow;horizontal=0;startSize=0;swimlaneHead=0;swimlaneBody=0;top=0;left=0;bottom=0;right=0;collapsible=0;dropTarget=0;points=[[0,0.5],[1,0.5]];portConstraint=eastwest;strokeWidth=3;fillColor=none;fontColor=#0d0c0c;strokeColor=#0A0A0A;" parent="18" vertex="1">
                    <mxGeometry y="300" width="260" height="30" as="geometry"/>
                </mxCell>
                <mxCell id="42" value="9" style="shape=partialRectangle;html=1;whiteSpace=wrap;connectable=0;top=0;left=0;bottom=0;right=0;overflow=hidden;strokeWidth=3;fillColor=none;fontColor=#0d0c0c;strokeColor=#0A0A0A;" parent="41" vertex="1">
                    <mxGeometry width="58" height="30" as="geometry">
                        <mxRectangle width="58" height="30" as="alternateBounds"/>
                    </mxGeometry>
                </mxCell>
                <mxCell id="43" value="taxValueDT1USA" style="shape=partialRectangle;html=1;whiteSpace=wrap;connectable=0;top=0;left=0;bottom=0;right=0;align=left;spacingLeft=6;overflow=hidden;strokeWidth=3;fillColor=none;fontColor=#0d0c0c;strokeColor=#0A0A0A;" parent="41" vertex="1">
                    <mxGeometry x="58" width="202" height="30" as="geometry">
                        <mxRectangle width="202" height="30" as="alternateBounds"/>
                    </mxGeometry>
                </mxCell>
                <mxCell id="47" value="" style="shape=tableRow;horizontal=0;startSize=0;swimlaneHead=0;swimlaneBody=0;top=0;left=0;bottom=0;right=0;collapsible=0;dropTarget=0;points=[[0,0.5],[1,0.5]];portConstraint=eastwest;strokeWidth=3;fillColor=none;fontColor=#0d0c0c;strokeColor=#0A0A0A;" parent="18" vertex="1">
                    <mxGeometry y="330" width="260" height="30" as="geometry"/>
                </mxCell>
                <mxCell id="48" value="10" style="shape=partialRectangle;html=1;whiteSpace=wrap;connectable=0;top=0;left=0;bottom=0;right=0;overflow=hidden;strokeWidth=3;fillColor=none;fontColor=#0d0c0c;strokeColor=#0A0A0A;" parent="47" vertex="1">
                    <mxGeometry width="58" height="30" as="geometry">
                        <mxRectangle width="58" height="30" as="alternateBounds"/>
                    </mxGeometry>
                </mxCell>
                <mxCell id="49" value="grossRevenueDT1USA" style="shape=partialRectangle;html=1;whiteSpace=wrap;connectable=0;top=0;left=0;bottom=0;right=0;align=left;spacingLeft=6;overflow=hidden;strokeWidth=3;fillColor=none;fontColor=#0d0c0c;strokeColor=#0A0A0A;" parent="47" vertex="1">
                    <mxGeometry x="58" width="202" height="30" as="geometry">
                        <mxRectangle width="202" height="30" as="alternateBounds"/>
                    </mxGeometry>
                </mxCell>
                <mxCell id="50" value="" style="shape=tableRow;horizontal=0;startSize=0;swimlaneHead=0;swimlaneBody=0;top=0;left=0;bottom=0;right=0;collapsible=0;dropTarget=0;points=[[0,0.5],[1,0.5]];portConstraint=eastwest;strokeWidth=3;fillColor=none;fontColor=#0d0c0c;strokeColor=#0A0A0A;" parent="18" vertex="1">
                    <mxGeometry y="360" width="260" height="30" as="geometry"/>
                </mxCell>
                <mxCell id="51" value="11" style="shape=partialRectangle;html=1;whiteSpace=wrap;connectable=0;top=0;left=0;bottom=0;right=0;overflow=hidden;strokeWidth=3;fillColor=none;fontColor=#0d0c0c;strokeColor=#0A0A0A;" parent="50" vertex="1">
                    <mxGeometry width="58" height="30" as="geometry">
                        <mxRectangle width="58" height="30" as="alternateBounds"/>
                    </mxGeometry>
                </mxCell>
                <mxCell id="52" value="recognitionWht" style="shape=partialRectangle;html=1;whiteSpace=wrap;connectable=0;top=0;left=0;bottom=0;right=0;align=left;spacingLeft=6;overflow=hidden;strokeWidth=3;fillColor=none;fontColor=#0d0c0c;strokeColor=#0A0A0A;" parent="50" vertex="1">
                    <mxGeometry x="58" width="202" height="30" as="geometry">
                        <mxRectangle width="202" height="30" as="alternateBounds"/>
                    </mxGeometry>
                </mxCell>
                <mxCell id="53" value="" style="shape=tableRow;horizontal=0;startSize=0;swimlaneHead=0;swimlaneBody=0;top=0;left=0;bottom=0;right=0;collapsible=0;dropTarget=0;points=[[0,0.5],[1,0.5]];portConstraint=eastwest;strokeWidth=3;fillColor=none;fontColor=#0d0c0c;strokeColor=#0A0A0A;" parent="18" vertex="1">
                    <mxGeometry y="390" width="260" height="30" as="geometry"/>
                </mxCell>
                <mxCell id="54" value="12" style="shape=partialRectangle;html=1;whiteSpace=wrap;connectable=0;top=0;left=0;bottom=0;right=0;overflow=hidden;strokeWidth=3;fillColor=none;fontColor=#0d0c0c;strokeColor=#0A0A0A;" parent="53" vertex="1">
                    <mxGeometry width="58" height="30" as="geometry">
                        <mxRectangle width="58" height="30" as="alternateBounds"/>
                    </mxGeometry>
                </mxCell>
                <mxCell id="55" value="whtUSA" style="shape=partialRectangle;html=1;whiteSpace=wrap;connectable=0;top=0;left=0;bottom=0;right=0;align=left;spacingLeft=6;overflow=hidden;strokeWidth=3;fillColor=none;fontColor=#0d0c0c;strokeColor=#0A0A0A;" parent="53" vertex="1">
                    <mxGeometry x="58" width="202" height="30" as="geometry">
                        <mxRectangle width="202" height="30" as="alternateBounds"/>
                    </mxGeometry>
                </mxCell>
                <mxCell id="44" value="" style="shape=tableRow;horizontal=0;startSize=0;swimlaneHead=0;swimlaneBody=0;top=0;left=0;bottom=0;right=0;collapsible=0;dropTarget=0;points=[[0,0.5],[1,0.5]];portConstraint=eastwest;strokeWidth=3;fillColor=none;fontColor=#0d0c0c;strokeColor=#0A0A0A;" parent="18" vertex="1">
                    <mxGeometry y="420" width="260" height="30" as="geometry"/>
                </mxCell>
                <mxCell id="45" value="13" style="shape=partialRectangle;html=1;whiteSpace=wrap;connectable=0;top=0;left=0;bottom=0;right=0;overflow=hidden;strokeWidth=3;fillColor=none;fontColor=#0d0c0c;strokeColor=#0A0A0A;" parent="44" vertex="1">
                    <mxGeometry width="58" height="30" as="geometry">
                        <mxRectangle width="58" height="30" as="alternateBounds"/>
                    </mxGeometry>
                </mxCell>
                <mxCell id="46" value="totalTaxValue" style="shape=partialRectangle;html=1;whiteSpace=wrap;connectable=0;top=0;left=0;bottom=0;right=0;align=left;spacingLeft=6;overflow=hidden;strokeWidth=3;fillColor=none;fontColor=#0d0c0c;strokeColor=#0A0A0A;" parent="44" vertex="1">
                    <mxGeometry x="58" width="202" height="30" as="geometry">
                        <mxRectangle width="202" height="30" as="alternateBounds"/>
                    </mxGeometry>
                </mxCell>
                <mxCell id="31" value="" style="shape=tableRow;horizontal=0;startSize=0;swimlaneHead=0;swimlaneBody=0;top=0;left=0;bottom=0;right=0;collapsible=0;dropTarget=0;points=[[0,0.5],[1,0.5]];portConstraint=eastwest;strokeWidth=3;fillColor=none;fontColor=#0d0c0c;strokeColor=#0A0A0A;" parent="18" vertex="1">
                    <mxGeometry y="450" width="260" height="30" as="geometry"/>
                </mxCell>
                <mxCell id="32" value="14" style="shape=partialRectangle;html=1;whiteSpace=wrap;connectable=0;top=0;left=0;bottom=0;right=0;overflow=hidden;strokeWidth=3;fillColor=none;fontColor=#0d0c0c;strokeColor=#0A0A0A;" parent="31" vertex="1">
                    <mxGeometry width="58" height="30" as="geometry">
                        <mxRectangle width="58" height="30" as="alternateBounds"/>
                    </mxGeometry>
                </mxCell>
                <mxCell id="33" value="totalGrossRevenueWht" style="shape=partialRectangle;html=1;whiteSpace=wrap;connectable=0;top=0;left=0;bottom=0;right=0;align=left;spacingLeft=6;overflow=hidden;strokeWidth=3;fillColor=none;fontColor=#0d0c0c;strokeColor=#0A0A0A;" parent="31" vertex="1">
                    <mxGeometry x="58" width="202" height="30" as="geometry">
                        <mxRectangle width="202" height="30" as="alternateBounds"/>
                    </mxGeometry>
                </mxCell>
                <mxCell id="56" value="" style="shape=tableRow;horizontal=0;startSize=0;swimlaneHead=0;swimlaneBody=0;top=0;left=0;bottom=0;right=0;collapsible=0;dropTarget=0;points=[[0,0.5],[1,0.5]];portConstraint=eastwest;strokeWidth=3;fillColor=none;fontColor=#0d0c0c;strokeColor=#0A0A0A;" parent="18" vertex="1">
                    <mxGeometry y="480" width="260" height="30" as="geometry"/>
                </mxCell>
                <mxCell id="57" value="15" style="shape=partialRectangle;html=1;whiteSpace=wrap;connectable=0;top=0;left=0;bottom=0;right=0;overflow=hidden;strokeWidth=3;fillColor=none;fontColor=#0d0c0c;strokeColor=#0A0A0A;" parent="56" vertex="1">
                    <mxGeometry width="58" height="30" as="geometry">
                        <mxRectangle width="58" height="30" as="alternateBounds"/>
                    </mxGeometry>
                </mxCell>
                <mxCell id="58" value="totalGrossRevenueWoWht" style="shape=partialRectangle;html=1;whiteSpace=wrap;connectable=0;top=0;left=0;bottom=0;right=0;align=left;spacingLeft=6;overflow=hidden;strokeWidth=3;fillColor=none;fontColor=#0d0c0c;strokeColor=#0A0A0A;" parent="56" vertex="1">
                    <mxGeometry x="58" width="202" height="30" as="geometry">
                        <mxRectangle width="202" height="30" as="alternateBounds"/>
                    </mxGeometry>
                </mxCell>
                <mxCell id="59" value="" style="shape=tableRow;horizontal=0;startSize=0;swimlaneHead=0;swimlaneBody=0;top=0;left=0;bottom=0;right=0;collapsible=0;dropTarget=0;points=[[0,0.5],[1,0.5]];portConstraint=eastwest;strokeWidth=3;fillColor=none;fontColor=#0d0c0c;strokeColor=#0A0A0A;" parent="18" vertex="1">
                    <mxGeometry y="510" width="260" height="30" as="geometry"/>
                </mxCell>
                <mxCell id="60" value="16" style="shape=partialRectangle;html=1;whiteSpace=wrap;connectable=0;top=0;left=0;bottom=0;right=0;overflow=hidden;strokeWidth=3;fillColor=none;fontColor=#0d0c0c;strokeColor=#0A0A0A;" parent="59" vertex="1">
                    <mxGeometry width="58" height="30" as="geometry">
                        <mxRectangle width="58" height="30" as="alternateBounds"/>
                    </mxGeometry>
                </mxCell>
                <mxCell id="61" value="totalGrossRevenue" style="shape=partialRectangle;html=1;whiteSpace=wrap;connectable=0;top=0;left=0;bottom=0;right=0;align=left;spacingLeft=6;overflow=hidden;strokeWidth=3;fillColor=none;fontColor=#0d0c0c;strokeColor=#0A0A0A;" parent="59" vertex="1">
                    <mxGeometry x="58" width="202" height="30" as="geometry">
                        <mxRectangle width="202" height="30" as="alternateBounds"/>
                    </mxGeometry>
                </mxCell>
                <mxCell id="35" value="" style="shape=tableRow;horizontal=0;startSize=0;swimlaneHead=0;swimlaneBody=0;top=0;left=0;bottom=0;right=0;collapsible=0;dropTarget=0;points=[[0,0.5],[1,0.5]];portConstraint=eastwest;strokeWidth=3;fillColor=none;fontColor=#0d0c0c;strokeColor=#0A0A0A;" parent="18" vertex="1">
                    <mxGeometry y="540" width="260" height="30" as="geometry"/>
                </mxCell>
                <mxCell id="36" value="17" style="shape=partialRectangle;html=1;whiteSpace=wrap;connectable=0;top=0;left=0;bottom=0;right=0;overflow=hidden;strokeWidth=3;fillColor=none;fontColor=#0d0c0c;strokeColor=#0A0A0A;" parent="35" vertex="1">
                    <mxGeometry width="58" height="30" as="geometry">
                        <mxRectangle width="58" height="30" as="alternateBounds"/>
                    </mxGeometry>
                </mxCell>
                <mxCell id="37" value="expenses" style="shape=partialRectangle;html=1;whiteSpace=wrap;connectable=0;top=0;left=0;bottom=0;right=0;align=left;spacingLeft=6;overflow=hidden;strokeWidth=3;fillColor=none;fontColor=#0d0c0c;strokeColor=#0A0A0A;" parent="35" vertex="1">
                    <mxGeometry x="58" width="202" height="30" as="geometry">
                        <mxRectangle width="202" height="30" as="alternateBounds"/>
                    </mxGeometry>
                </mxCell>
                <mxCell id="34" style="edgeStyle=none;html=1;entryX=1.006;entryY=0.101;entryDx=0;entryDy=0;exitX=0;exitY=0.5;exitDx=0;exitDy=0;strokeWidth=3;fillColor=none;fontColor=#0d0c0c;strokeColor=#0A0A0A;entryPerimeter=0;" parent="1" source="19" target="2" edge="1">
                    <mxGeometry relative="1" as="geometry">
                        <Array as="points">
                            <mxPoint x="330" y="85"/>
                            <mxPoint x="330" y="55"/>
                        </Array>
                    </mxGeometry>
                </mxCell>
                <mxCell id="74" value="Text" style="text;strokeColor=none;align=center;fillColor=none;html=1;verticalAlign=middle;whiteSpace=wrap;rounded=0;" vertex="1" parent="1">
                    <mxGeometry x="380" y="269" width="60" height="30" as="geometry"/>
                </mxCell>
            </root>
        </mxGraphModel>
    </diagram>
</mxfile>